<svg version="1.2" xmlns="http://www.w3.org/2000/svg" viewBox="0 0 128 128" width="128" height="128">
	<title>New Project</title>
	<style>
		.s0 { fill: #ffffff;stroke: #000000;stroke-miterlimit:10;stroke-width: 4 } 
		.s1 { fill: #000000 } 
	</style>
	<path id="Shape 1" fill-rule="evenodd" class="s0" d="m64 124c-33.2 0-60-26.8-60-60 0-33.2 26.8-60 60-60 33.2 0 60 26.8 60 60 0 33.2-26.8 60-60 60z"/>
	<g id="Layer 1">
		<g id="Folder 2">
			<path id="D" class="s1" aria-label="D"  d="m67.9 64.8c0-15.4-9.2-23.1-20.1-23.1h-24.5v3.1h6.2v39.1h-6.2v3.1h24.5c11.1 0 20.1-7.6 20.1-22.2zm-9.7 0c0 6.9-0.5 10.6-2.1 13.5-2.1 3.7-6.2 5.6-11 5.6h-6.6v-39.1h6.6c4.6 0 8.8 1.9 11 6 1.6 2.8 2.1 6.6 2.1 14z"/>
			<path id="C" class="s1" aria-label="C"  d="m102.9 72c0-1.3-0.5-1.4-1.6-1.4-0.9 0-1.4 0-1.5 1.2 0 8.7-6.9 12.8-12.6 12.8-4.6 0-9.3-2-11.7-6-2.3-3.9-2.7-8.2-2.7-14.2 0-4.3 0-10.6 3.1-14.9 3.3-4.5 8.4-5.4 11.2-5.4 5.4 0 10.9 4.1 12.3 13.7 0.1 1.1 0.6 1.1 1.7 1.1 1.7 0 1.8-0.1 1.8-1.9v-14.2c0-1.2 0-1.8-1.2-1.8-0.6 0-0.7 0.1-1.3 0.6l-3.8 3.5c-3-2.7-6.4-4.1-10.7-4.1-13 0-23.2 8.4-23.2 23.4 0 14.7 10 23.3 23.2 23.3 10.8 0 17-8.6 17-15.7z"/>
		</g>
		<g id="Folder 1">
		</g>
	</g>
</svg>