<svg version="1.1" id="Layer_1" xmlns="http://www.w3.org/2000/svg" xmlns:xlink="http://www.w3.org/1999/xlink" x="0px" y="0px"
	 width="100%" viewBox="0 0 1024 1024" enable-background="new 0 0 1024 1024" xml:space="preserve">
<path fill="#0A0A0A" opacity="1.000000" stroke="none" 
	d="
M478.000000,1025.000000 
	C318.666656,1025.000000 159.833328,1025.000000 1.000000,1025.000000 
	C1.000000,683.666687 1.000000,342.333344 1.000000,1.000000 
	C342.333344,1.000000 683.666687,1.000000 1025.000000,1.000000 
	C1025.000000,342.333344 1025.000000,683.666687 1025.000000,1025.000000 
	C842.833313,1025.000000 660.666687,1025.000000 478.000000,1025.000000 
M335.322815,364.265808 
	C302.605408,345.729797 267.610596,340.256348 230.881622,347.244812 
	C151.404938,362.366852 98.836845,443.186737 116.347244,522.221741 
	C133.014252,597.450073 205.302338,651.161377 286.786316,637.160706 
	C365.260559,623.677246 419.764832,547.998901 407.033752,468.914368 
	C399.670868,423.176666 375.665833,388.481659 335.322815,364.265808 
M697.510193,398.924500 
	C695.929504,398.441742 694.368774,397.876678 692.765137,397.488708 
	C673.579834,392.847168 655.389648,401.159210 648.456421,418.786835 
	C645.986206,425.067291 645.217834,432.347351 645.152649,439.185242 
	C644.896851,466.000946 668.022522,483.633301 693.843689,476.458282 
	C710.374207,471.864960 718.658386,459.941681 720.651550,443.504700 
	C722.736328,426.312683 716.832092,407.460236 697.510193,398.924500 
M462.523071,476.986877 
	C471.301117,476.581299 480.330566,477.352753 488.808563,475.542206 
	C511.316376,470.735474 519.090759,449.683441 516.607605,430.863586 
	C514.379456,413.975769 505.557159,401.534760 488.231262,398.801880 
	C476.482849,396.948700 464.205627,398.448029 452.286377,398.448029 
	C452.286377,424.389954 452.286377,450.592316 452.286377,476.986938 
	C455.578522,476.986938 458.556091,476.986938 462.523071,476.986877 
M761.446594,477.923706 
	C775.197144,477.006073 782.266052,468.596588 784.562134,457.600464 
	C785.786499,451.736603 785.610535,445.343140 784.838135,439.346985 
	C783.002808,425.099579 771.677856,416.593842 757.551392,419.166870 
	C752.708618,420.048981 748.346069,423.567200 743.734802,425.895844 
	C743.734802,424.615906 743.734802,422.421783 743.734802,420.020630 
	C739.328064,420.020630 735.392090,420.020630 731.270813,420.020630 
	C731.270813,445.782867 731.270813,471.351105 731.270813,497.085266 
	C735.582947,497.085266 739.676575,497.085266 743.993286,497.085266 
	C743.993286,492.357971 743.993225,487.867371 743.993225,483.376770 
	C743.993225,478.984161 743.993286,474.591553 743.993286,469.091522 
	C748.758789,475.217163 754.183044,477.567841 761.446594,477.923706 
M571.410645,451.998657 
	C573.843750,451.998657 576.276855,451.998657 579.154724,451.998657 
	C578.709656,447.641083 578.502686,444.005524 577.944336,440.424744 
	C575.370239,423.917633 559.562317,414.452484 543.668213,419.823059 
	C529.433411,424.632996 522.760376,438.539398 526.039490,456.560669 
	C528.382202,469.435608 539.516968,478.290588 553.386841,477.929993 
	C564.837891,477.632324 575.787964,471.989685 577.689819,460.461548 
	C574.861267,460.461548 572.056580,460.204590 569.327881,460.549103 
	C567.412476,460.790985 565.067566,461.345001 563.836670,462.637665 
	C559.080566,467.632507 553.366089,469.265839 547.167969,466.801727 
	C541.439819,464.524414 538.310242,459.260559 538.490662,451.998413 
	C549.134705,451.998413 559.784485,451.998413 571.410645,451.998657 
M708.444763,572.938904 
	C710.581177,578.125122 714.787842,574.049622 718.023315,575.645447 
	C718.023315,562.752197 718.288513,550.451233 717.927429,538.168640 
	C717.697632,530.350647 711.647705,525.468689 703.782104,524.914673 
	C696.681580,524.414490 691.650879,527.395935 687.568604,533.072876 
	C684.499756,528.145935 680.642639,525.118713 674.686890,524.920349 
	C668.828430,524.725098 664.129395,526.647095 660.172180,531.419922 
	C659.993103,529.293823 659.864075,527.761536 659.741821,526.309875 
	C656.235901,526.309875 653.163696,526.309875 650.150757,526.309875 
	C650.150757,542.738220 650.150757,558.853699 650.150757,575.215637 
	C653.393127,575.215637 656.477234,575.215637 659.900635,575.215637 
	C659.900635,573.837708 659.898071,572.702515 659.901062,571.567383 
	C659.925293,562.406799 659.848755,553.244446 660.009644,544.086243 
	C660.125000,537.521301 664.405090,533.309448 670.539246,533.327393 
	C675.842773,533.342957 678.945312,537.236633 679.005859,543.973572 
	C679.025330,546.138794 679.012756,548.304260 679.012878,550.469604 
	C679.013367,558.714783 679.013000,566.960022 679.013000,575.059021 
	C682.757690,575.059021 685.802917,575.059021 689.007141,575.059021 
	C689.007141,564.865784 688.956604,555.043823 689.024292,545.222778 
	C689.071655,538.354614 693.327148,533.520081 699.283813,533.344971 
	C705.024292,533.176208 708.233521,536.878418 708.407104,544.558838 
	C708.614136,553.715149 708.475708,562.879150 708.444763,572.938904 
M629.827209,542.255920 
	C629.827209,553.203064 629.827209,564.150208 629.827209,575.052734 
	C633.397339,575.052734 636.423462,575.052734 639.039307,575.052734 
	C639.039307,562.294495 639.298828,549.978882 638.942993,537.681091 
	C638.725708,530.170349 633.122559,525.511841 625.633362,524.841614 
	C618.217651,524.177979 612.772827,527.139954 609.506287,531.938232 
	C605.647766,529.491516 602.408936,526.228882 598.598022,525.291321 
	C592.130798,523.700256 585.814514,525.147400 581.224243,531.477783 
	C581.013367,529.210693 580.870850,527.678284 580.745911,526.335571 
	C577.234070,526.335571 574.165955,526.335571 571.146301,526.335571 
	C571.146301,542.782166 571.146301,558.895630 571.146301,575.260742 
	C574.408142,575.260742 577.495544,575.260742 580.996399,575.260742 
	C580.996399,565.432617 580.992310,555.812866 580.997681,546.193054 
	C581.002197,538.162659 585.100159,533.114136 591.505310,533.230591 
	C597.460754,533.338867 600.036621,537.094604 600.058289,545.812134 
	C600.082581,555.569763 600.063904,565.327515 600.063904,575.170166 
	C603.726990,575.170166 606.805603,575.170166 610.036072,575.170166 
	C610.036072,564.919739 609.946045,554.935913 610.068481,544.954651 
	C610.146851,538.561951 613.962952,534.128296 619.610840,533.399719 
	C624.838257,532.725403 627.768616,535.050903 629.827209,542.255920 
M794.986511,465.412292 
	C799.486877,475.910583 814.750366,480.567719 828.047791,476.325378 
	C836.730591,473.555206 841.571228,467.305267 841.462524,459.262543 
	C841.359558,451.640472 836.745911,446.533386 827.501648,444.101624 
	C823.031372,442.925720 818.443054,442.194885 813.981384,440.991455 
	C810.741821,440.117676 807.496216,439.007660 807.965637,434.457581 
	C808.420288,430.050201 811.733521,428.673492 815.151001,428.127533 
	C821.665222,427.086792 826.457214,429.692719 828.396545,435.871185 
	C832.579529,435.871185 836.307190,435.871185 840.642944,435.871185 
	C839.791199,433.387177 839.355042,431.264893 838.383545,429.425354 
	C833.496399,420.172272 820.419373,415.928650 808.557007,419.614868 
	C799.341248,422.478668 794.944519,427.917389 795.012878,436.368561 
	C795.074768,444.013367 799.015564,448.424103 808.575378,451.065582 
	C813.367981,452.389832 818.333069,453.094910 823.115601,454.449097 
	C826.470093,455.398926 829.927734,457.661133 828.714783,461.403198 
	C827.867859,464.016022 824.795776,466.914185 822.119690,467.734833 
	C814.722900,470.003235 809.334839,466.723450 806.155212,459.189209 
	C802.030640,459.189209 797.906006,459.189209 793.519531,459.189209 
	C793.929443,461.198700 794.290527,462.968475 794.986511,465.412292 
M462.127991,528.047363 
	C464.223511,525.102844 465.821960,521.564636 468.503357,519.320007 
	C478.433929,511.007202 491.440125,515.424927 497.519684,528.818970 
	C500.653595,528.818970 503.773529,528.818970 507.395294,528.818970 
	C507.033844,526.988098 506.877380,525.375244 506.393219,523.867676 
	C500.456024,505.380157 474.600220,499.574402 459.862854,513.393311 
	C450.589539,522.088684 448.183044,533.279907 449.115051,545.247131 
	C450.263702,559.996155 457.325653,574.043823 476.839355,576.573120 
	C492.213776,578.566040 506.396698,568.376648 507.541351,555.320312 
	C504.240723,555.320312 500.955750,555.320312 497.627716,555.320312 
	C493.098938,564.817810 487.799774,567.947449 477.691376,567.034180 
	C470.144989,566.352417 463.335663,560.598206 461.281433,552.401978 
	C459.316437,544.561951 459.195801,536.610474 462.127991,528.047363 
M603.953064,440.427948 
	C601.769897,433.687256 599.586731,426.946533 597.367920,420.095886 
	C592.796204,420.095886 588.388916,420.095886 583.553955,420.095886 
	C590.699646,439.281891 597.715515,458.119415 604.661133,476.768311 
	C609.521973,476.768311 613.982971,476.768311 618.393433,476.768311 
	C625.315674,457.791595 632.158081,439.033600 639.089905,420.030487 
	C634.263000,420.030487 629.963562,420.030487 625.625732,420.030487 
	C620.949463,434.926239 616.317200,449.681549 611.510315,464.993286 
	C608.909058,456.671265 606.493713,448.944183 603.953064,440.427948 
M556.405457,532.117004 
	C549.970093,524.647949 541.460144,523.677856 532.675903,525.492920 
	C523.917480,527.302673 518.510620,533.373352 516.755371,542.085449 
	C515.883301,546.414185 515.789246,551.004395 516.048279,555.434998 
	C516.623352,565.272827 523.358948,573.274902 532.527588,575.686035 
	C542.638184,578.344910 552.488098,574.942322 558.224121,566.809448 
	C564.744751,557.564148 564.161255,542.762451 556.405457,532.117004 
M889.752258,538.873901 
	C894.069580,550.005066 898.558472,561.075134 902.563599,572.317505 
	C903.391113,574.640259 902.952637,577.774475 902.168030,580.238647 
	C900.338989,585.982666 895.341797,586.635376 890.342407,586.137268 
	C890.342407,589.080566 890.342407,591.475464 890.342407,593.805969 
	C903.908447,595.690552 909.256165,590.068726 913.017151,579.196228 
	C915.934509,570.762634 918.948669,562.362549 921.864685,553.928528 
	C925.032593,544.766113 928.137085,535.581787 931.310303,526.286804 
	C920.778931,525.511353 920.777771,525.510986 917.940308,534.820862 
	C917.552979,536.091797 917.194702,537.371643 916.804443,538.641602 
	C914.263367,546.910461 911.717163,555.177734 908.863220,564.451050 
	C905.349060,553.981201 902.154663,544.640869 899.082214,535.260620 
	C895.941589,525.671997 895.993774,525.651489 885.997070,526.091797 
	C885.739624,526.103149 885.494568,526.397339 885.006592,526.713074 
	C886.447388,530.513428 887.904114,534.355530 889.752258,538.873901 
M728.003601,532.586426 
	C728.005493,541.251831 727.449951,549.968445 728.238037,558.561707 
	C728.648987,563.043091 730.427917,568.185181 733.335815,571.493164 
	C740.071655,579.155457 751.915283,577.786987 760.076477,569.172607 
	C760.191895,571.232117 760.298340,573.131409 760.414978,575.212463 
	C763.745239,575.212463 766.831360,575.212463 770.056274,575.212463 
	C770.056274,558.754028 770.056274,542.510803 770.056274,526.244446 
	C766.695557,526.244446 763.592834,526.244446 760.113770,526.244446 
	C760.113770,536.601562 760.198792,546.727722 760.080750,556.851501 
	C760.013672,562.608948 755.230835,567.322571 749.267944,567.889954 
	C744.036560,568.387634 739.108826,564.312256 738.197083,558.496155 
	C737.864685,556.375977 738.006165,554.175110 738.001770,552.010986 
	C737.984253,543.410767 737.994568,534.810608 737.994568,526.339355 
	C734.319092,526.339355 731.251404,526.339355 728.003906,526.339355 
	C728.003906,528.309937 728.003906,529.961609 728.003601,532.586426 
M791.215210,574.034668 
	C791.201050,564.376953 791.031921,554.716125 791.226624,545.062622 
	C791.359131,538.487610 796.346619,533.587097 802.538269,533.349487 
	C809.227966,533.092773 812.830261,536.478333 813.638489,544.035095 
	C813.902710,546.506104 813.753235,549.023560 813.756531,551.519775 
	C813.767090,559.440491 813.760437,567.361267 813.760437,575.101624 
	C817.325073,575.101624 820.244934,575.101624 823.017456,575.101624 
	C823.017456,562.622375 823.259888,550.487061 822.901306,538.369629 
	C822.752319,533.333862 819.848511,529.333496 815.230103,526.872314 
	C807.519470,522.763245 799.736511,524.300903 791.139465,531.830750 
	C791.139465,529.850830 791.139465,528.116089 791.139465,526.332581 
	C787.622559,526.332581 784.404419,526.332581 781.188110,526.332581 
	C781.188110,542.775330 781.188110,558.880798 781.188110,575.639099 
	C784.598816,575.351379 787.804077,575.080994 791.215210,574.034668 
M869.001587,516.608826 
	C868.221802,508.253601 862.193237,515.588989 858.818054,511.509430 
	C858.818054,517.578064 858.818054,521.781921 858.818054,526.349243 
	C856.189148,526.349243 854.109070,526.349243 852.190186,526.349243 
	C852.190186,529.018250 852.190186,531.297791 852.190186,533.932556 
	C854.492493,533.932556 856.566895,533.932556 859.008545,533.932556 
	C859.008545,543.740479 858.919495,553.191528 859.036865,562.639954 
	C859.130066,570.137695 862.614624,575.049622 868.622681,575.818848 
	C872.159668,576.271606 875.801880,575.901489 879.339417,575.901489 
	C879.339417,572.942505 879.339417,570.563965 879.339417,568.077698 
	C874.659729,568.033630 869.455261,568.612366 869.175598,562.483276 
	C868.746216,553.072205 869.062683,543.627136 869.062683,533.726074 
	C872.890015,533.726074 876.281067,533.726074 879.643066,533.726074 
	C879.643066,530.976624 879.643066,528.707336 879.643066,525.959473 
	C876.053894,525.959473 872.653748,525.959473 869.001587,525.959473 
	C869.001587,522.842590 869.001587,520.205811 869.001587,516.608826 
M834.070862,558.498047 
	C834.070862,564.068115 834.070862,569.638245 834.070862,575.279419 
	C837.741455,575.279419 840.680969,575.279419 843.769470,575.279419 
	C843.769470,558.816895 843.769470,542.591919 843.769470,526.306152 
	C840.442932,526.306152 837.384155,526.306152 834.069092,526.306152 
	C834.069092,536.901062 834.069092,547.200012 834.070862,558.498047 
M840.816467,517.373901 
	C842.303894,515.475037 844.654175,513.718872 844.999573,511.631042 
	C845.265076,510.026031 843.324585,506.858276 841.796448,506.434113 
	C839.483887,505.792206 836.257019,506.267120 834.229065,507.549164 
	C832.897583,508.390839 832.169312,511.696930 832.627869,513.536133 
	C833.503418,517.048218 836.629517,518.007812 840.816467,517.373901 
z"/>
<path fill="#F5F5F5" opacity="1.000000" stroke="none" 
	d="
M335.627472,364.467041 
	C375.665833,388.481659 399.670868,423.176666 407.033752,468.914368 
	C419.764832,547.998901 365.260559,623.677246 286.786316,637.160706 
	C205.302338,651.161377 133.014252,597.450073 116.347244,522.221741 
	C98.836845,443.186737 151.404938,362.366852 230.881622,347.244812 
	C267.610596,340.256348 302.605408,345.729797 335.627472,364.467041 
M262.488159,631.076843 
	C272.525574,629.957031 282.784332,629.803650 292.565125,627.563416 
	C366.020996,610.739258 413.063293,537.473450 397.973267,463.718079 
	C382.701385,389.073730 310.242767,340.101471 232.583282,355.314941 
	C161.648422,369.211029 110.297806,437.936798 123.245239,514.539307 
	C134.553238,581.442200 194.158600,632.508789 262.488159,631.076843 
z"/>
<path fill="#F9F9F9" opacity="1.000000" stroke="none" 
	d="
M697.879517,399.039581 
	C716.832092,407.460236 722.736328,426.312683 720.651550,443.504700 
	C718.658386,459.941681 710.374207,471.864960 693.843689,476.458282 
	C668.022522,483.633301 644.896851,466.000946 645.152649,439.185242 
	C645.217834,432.347351 645.986206,425.067291 648.456421,418.786835 
	C655.389648,401.159210 673.579834,392.847168 692.765137,397.488708 
	C694.368774,397.876678 695.929504,398.441742 697.879517,399.039581 
M687.888550,465.999939 
	C695.684387,464.068054 701.199768,459.388519 704.126038,451.944885 
	C708.479858,440.869690 708.161987,429.849915 702.626953,419.251526 
	C696.340393,407.214172 679.907776,404.017731 669.189331,412.410400 
	C663.149048,417.139923 660.357544,423.574646 659.344482,430.805786 
	C656.749695,449.328888 665.414978,468.590302 687.888550,465.999939 
z"/>
<path fill="#FCFCFC" opacity="1.000000" stroke="none" 
	d="
M462.028381,476.986908 
	C458.556091,476.986938 455.578522,476.986938 452.286377,476.986938 
	C452.286377,450.592316 452.286377,424.389954 452.286377,398.448029 
	C464.205627,398.448029 476.482849,396.948700 488.231262,398.801880 
	C505.557159,401.534760 514.379456,413.975769 516.607605,430.863586 
	C519.090759,449.683441 511.316376,470.735474 488.808563,475.542206 
	C480.330566,477.352753 471.301117,476.581299 462.028381,476.986908 
M497.670013,417.921112 
	C489.230896,406.229736 476.923218,409.317963 465.382660,409.078461 
	C465.382660,427.990173 465.382660,446.508026 465.382660,465.061371 
	C470.712952,465.061371 475.703552,465.077606 480.694031,465.057831 
	C489.556152,465.022675 496.071228,460.827515 499.614929,452.948334 
	C504.821503,441.371796 504.520294,429.747925 497.670013,417.921112 
z"/>
<path fill="#F9F9F9" opacity="1.000000" stroke="none" 
	d="
M761.013550,477.906250 
	C754.183044,477.567841 748.758789,475.217163 743.993286,469.091522 
	C743.993286,474.591553 743.993225,478.984161 743.993225,483.376770 
	C743.993225,487.867371 743.993286,492.357971 743.993286,497.085266 
	C739.676575,497.085266 735.582947,497.085266 731.270813,497.085266 
	C731.270813,471.351105 731.270813,445.782867 731.270813,420.020630 
	C735.392090,420.020630 739.328064,420.020630 743.734802,420.020630 
	C743.734802,422.421783 743.734802,424.615906 743.734802,425.895844 
	C748.346069,423.567200 752.708618,420.048981 757.551392,419.166870 
	C771.677856,416.593842 783.002808,425.099579 784.838135,439.346985 
	C785.610535,445.343140 785.786499,451.736603 784.562134,457.600464 
	C782.266052,468.596588 775.197144,477.006073 761.013550,477.906250 
M771.767273,454.726227 
	C771.842468,450.576202 772.274048,446.394897 771.912842,442.283234 
	C771.308655,435.405823 766.030579,429.663879 760.322754,429.003143 
	C752.882568,428.141876 747.199036,431.670746 744.759460,439.267548 
	C742.507202,446.281006 742.510620,453.404022 746.230469,460.002167 
	C748.599426,464.204224 751.987610,467.142365 757.352173,467.108704 
	C764.476868,467.063965 768.515198,463.924805 771.767273,454.726227 
z"/>
<path fill="#F7F7F7" opacity="1.000000" stroke="none" 
	d="
M570.922485,451.998535 
	C559.784485,451.998413 549.134705,451.998413 538.490662,451.998413 
	C538.310242,459.260559 541.439819,464.524414 547.167969,466.801727 
	C553.366089,469.265839 559.080566,467.632507 563.836670,462.637665 
	C565.067566,461.345001 567.412476,460.790985 569.327881,460.549103 
	C572.056580,460.204590 574.861267,460.461548 577.689819,460.461548 
	C575.787964,471.989685 564.837891,477.632324 553.386841,477.929993 
	C539.516968,478.290588 528.382202,469.435608 526.039490,456.560669 
	C522.760376,438.539398 529.433411,424.632996 543.668213,419.823059 
	C559.562317,414.452484 575.370239,423.917633 577.944336,440.424744 
	C578.502686,444.005524 578.709656,447.641083 579.154724,451.998657 
	C576.276855,451.998657 573.843750,451.998657 570.922485,451.998535 
M553.495972,443.172638 
	C557.608948,443.172638 561.721924,443.172638 565.852112,443.172638 
	C565.314514,433.624939 560.127075,427.995361 552.265137,428.001709 
	C544.316528,428.008118 539.121521,433.671478 538.563110,443.181152 
	C543.217102,443.181152 547.858521,443.181152 553.495972,443.172638 
z"/>
<path fill="#F9F9F9" opacity="1.000000" stroke="none" 
	d="
M708.465881,572.489380 
	C708.475708,562.879150 708.614136,553.715149 708.407104,544.558838 
	C708.233521,536.878418 705.024292,533.176208 699.283813,533.344971 
	C693.327148,533.520081 689.071655,538.354614 689.024292,545.222778 
	C688.956604,555.043823 689.007141,564.865784 689.007141,575.059021 
	C685.802917,575.059021 682.757690,575.059021 679.013000,575.059021 
	C679.013000,566.960022 679.013367,558.714783 679.012878,550.469604 
	C679.012756,548.304260 679.025330,546.138794 679.005859,543.973572 
	C678.945312,537.236633 675.842773,533.342957 670.539246,533.327393 
	C664.405090,533.309448 660.125000,537.521301 660.009644,544.086243 
	C659.848755,553.244446 659.925293,562.406799 659.901062,571.567383 
	C659.898071,572.702515 659.900635,573.837708 659.900635,575.215637 
	C656.477234,575.215637 653.393127,575.215637 650.150757,575.215637 
	C650.150757,558.853699 650.150757,542.738220 650.150757,526.309875 
	C653.163696,526.309875 656.235901,526.309875 659.741821,526.309875 
	C659.864075,527.761536 659.993103,529.293823 660.172180,531.419922 
	C664.129395,526.647095 668.828430,524.725098 674.686890,524.920349 
	C680.642639,525.118713 684.499756,528.145935 687.568604,533.072876 
	C691.650879,527.395935 696.681580,524.414490 703.782104,524.914673 
	C711.647705,525.468689 717.697632,530.350647 717.927429,538.168640 
	C718.288513,550.451233 718.023315,562.752197 718.023315,575.645447 
	C714.787842,574.049622 710.581177,578.125122 708.465881,572.489380 
z"/>
<path fill="#F9F9F9" opacity="1.000000" stroke="none" 
	d="
M629.762451,541.830261 
	C627.768616,535.050903 624.838257,532.725403 619.610840,533.399719 
	C613.962952,534.128296 610.146851,538.561951 610.068481,544.954651 
	C609.946045,554.935913 610.036072,564.919739 610.036072,575.170166 
	C606.805603,575.170166 603.726990,575.170166 600.063904,575.170166 
	C600.063904,565.327515 600.082581,555.569763 600.058289,545.812134 
	C600.036621,537.094604 597.460754,533.338867 591.505310,533.230591 
	C585.100159,533.114136 581.002197,538.162659 580.997681,546.193054 
	C580.992310,555.812866 580.996399,565.432617 580.996399,575.260742 
	C577.495544,575.260742 574.408142,575.260742 571.146301,575.260742 
	C571.146301,558.895630 571.146301,542.782166 571.146301,526.335571 
	C574.165955,526.335571 577.234070,526.335571 580.745911,526.335571 
	C580.870850,527.678284 581.013367,529.210693 581.224243,531.477783 
	C585.814514,525.147400 592.130798,523.700256 598.598022,525.291321 
	C602.408936,526.228882 605.647766,529.491516 609.506287,531.938232 
	C612.772827,527.139954 618.217651,524.177979 625.633362,524.841614 
	C633.122559,525.511841 638.725708,530.170349 638.942993,537.681091 
	C639.298828,549.978882 639.039307,562.294495 639.039307,575.052734 
	C636.423462,575.052734 633.397339,575.052734 629.827209,575.052734 
	C629.827209,564.150208 629.827209,553.203064 629.762451,541.830261 
z"/>
<path fill="#F7F7F7" opacity="1.000000" stroke="none" 
	d="
M794.819031,465.075256 
	C794.290527,462.968475 793.929443,461.198700 793.519531,459.189209 
	C797.906006,459.189209 802.030640,459.189209 806.156616,459.191681 
	C809.334839,466.723450 814.722900,470.003235 822.119690,467.734833 
	C824.795776,466.914185 827.867859,464.016022 828.714783,461.403198 
	C829.927734,457.661133 826.470093,455.398926 823.115601,454.449097 
	C818.333069,453.094910 813.367981,452.389832 808.575378,451.065582 
	C799.015564,448.424103 795.074768,444.013367 795.012878,436.368561 
	C794.944519,427.917389 799.341248,422.478668 808.557007,419.614868 
	C820.419373,415.928650 833.496399,420.172272 838.383545,429.425354 
	C839.355042,431.264893 839.791199,433.387177 840.642944,435.871185 
	C836.307190,435.871185 832.579529,435.871185 828.396545,435.871185 
	C826.457214,429.692719 821.665222,427.086792 815.151001,428.127533 
	C811.733521,428.673492 808.420288,430.050201 807.965637,434.457581 
	C807.496216,439.007660 810.741821,440.117676 813.981384,440.991455 
	C818.443054,442.194885 823.031372,442.925720 827.501648,444.101624 
	C836.745911,446.533386 841.359558,451.640472 841.462524,459.262543 
	C841.571228,467.305267 836.730591,473.555206 828.047791,476.325378 
	C814.750366,480.567719 799.486877,475.910583 794.819031,465.075256 
z"/>
<path fill="#F7F7F7" opacity="1.000000" stroke="none" 
	d="
M462.019226,528.431763 
	C459.195801,536.610474 459.316437,544.561951 461.281433,552.401978 
	C463.335663,560.598206 470.144989,566.352417 477.691376,567.034180 
	C487.799774,567.947449 493.098938,564.817810 497.627716,555.320312 
	C500.955750,555.320312 504.240723,555.320312 507.541351,555.320312 
	C506.396698,568.376648 492.213776,578.566040 476.839355,576.573120 
	C457.325653,574.043823 450.263702,559.996155 449.115051,545.247131 
	C448.183044,533.279907 450.589539,522.088684 459.862854,513.393311 
	C474.600220,499.574402 500.456024,505.380157 506.393219,523.867676 
	C506.877380,525.375244 507.033844,526.988098 507.395294,528.818970 
	C503.773529,528.818970 500.653595,528.818970 497.519684,528.818970 
	C491.440125,515.424927 478.433929,511.007202 468.503357,519.320007 
	C465.821960,521.564636 464.223511,525.102844 462.019226,528.431763 
z"/>
<path fill="#F9F9F9" opacity="1.000000" stroke="none" 
	d="
M604.015747,440.822510 
	C606.493713,448.944183 608.909058,456.671265 611.510315,464.993286 
	C616.317200,449.681549 620.949463,434.926239 625.625732,420.030487 
	C629.963562,420.030487 634.263000,420.030487 639.089905,420.030487 
	C632.158081,439.033600 625.315674,457.791595 618.393433,476.768311 
	C613.982971,476.768311 609.521973,476.768311 604.661133,476.768311 
	C597.715515,458.119415 590.699646,439.281891 583.553955,420.095886 
	C588.388916,420.095886 592.796204,420.095886 597.367920,420.095886 
	C599.586731,426.946533 601.769897,433.687256 604.015747,440.822510 
z"/>
<path fill="#F7F7F7" opacity="1.000000" stroke="none" 
	d="
M556.641602,532.386414 
	C564.161255,542.762451 564.744751,557.564148 558.224121,566.809448 
	C552.488098,574.942322 542.638184,578.344910 532.527588,575.686035 
	C523.358948,573.274902 516.623352,565.272827 516.048279,555.434998 
	C515.789246,551.004395 515.883301,546.414185 516.755371,542.085449 
	C518.510620,533.373352 523.917480,527.302673 532.675903,525.492920 
	C541.460144,523.677856 549.970093,524.647949 556.641602,532.386414 
M549.775208,538.966309 
	C546.966248,533.923584 542.322876,532.480225 537.067505,533.109009 
	C531.832092,533.735535 527.821167,536.774109 527.055664,542.073547 
	C526.312744,547.216736 526.078979,552.648376 526.894653,557.749817 
	C528.036621,564.891846 532.649780,568.135132 539.369507,568.007080 
	C545.647217,567.887512 551.205688,563.729980 551.643921,557.256775 
	C552.037231,551.447144 550.726013,545.522156 549.775208,538.966309 
z"/>
<path fill="#F7F7F7" opacity="1.000000" stroke="none" 
	d="
M889.556519,538.535767 
	C887.904114,534.355530 886.447388,530.513428 885.006592,526.713074 
	C885.494568,526.397339 885.739624,526.103149 885.997070,526.091797 
	C895.993774,525.651489 895.941589,525.671997 899.082214,535.260620 
	C902.154663,544.640869 905.349060,553.981201 908.863220,564.451050 
	C911.717163,555.177734 914.263367,546.910461 916.804443,538.641602 
	C917.194702,537.371643 917.552979,536.091797 917.940308,534.820862 
	C920.777771,525.510986 920.778931,525.511353 931.310303,526.286804 
	C928.137085,535.581787 925.032593,544.766113 921.864685,553.928528 
	C918.948669,562.362549 915.934509,570.762634 913.017151,579.196228 
	C909.256165,590.068726 903.908447,595.690552 890.342407,593.805969 
	C890.342407,591.475464 890.342407,589.080566 890.342407,586.137268 
	C895.341797,586.635376 900.338989,585.982666 902.168030,580.238647 
	C902.952637,577.774475 903.391113,574.640259 902.563599,572.317505 
	C898.558472,561.075134 894.069580,550.005066 889.556519,538.535767 
z"/>
<path fill="#FAFAFA" opacity="1.000000" stroke="none" 
	d="
M728.003784,532.099854 
	C728.003906,529.961609 728.003906,528.309937 728.003906,526.339355 
	C731.251404,526.339355 734.319092,526.339355 737.994568,526.339355 
	C737.994568,534.810608 737.984253,543.410767 738.001770,552.010986 
	C738.006165,554.175110 737.864685,556.375977 738.197083,558.496155 
	C739.108826,564.312256 744.036560,568.387634 749.267944,567.889954 
	C755.230835,567.322571 760.013672,562.608948 760.080750,556.851501 
	C760.198792,546.727722 760.113770,536.601562 760.113770,526.244446 
	C763.592834,526.244446 766.695557,526.244446 770.056274,526.244446 
	C770.056274,542.510803 770.056274,558.754028 770.056274,575.212463 
	C766.831360,575.212463 763.745239,575.212463 760.414978,575.212463 
	C760.298340,573.131409 760.191895,571.232117 760.076477,569.172607 
	C751.915283,577.786987 740.071655,579.155457 733.335815,571.493164 
	C730.427917,568.185181 728.648987,563.043091 728.238037,558.561707 
	C727.449951,549.968445 728.005493,541.251831 728.003784,532.099854 
z"/>
<path fill="#FBFBFB" opacity="1.000000" stroke="none" 
	d="
M791.112305,574.422607 
	C787.804077,575.080994 784.598816,575.351379 781.188110,575.639099 
	C781.188110,558.880798 781.188110,542.775330 781.188110,526.332581 
	C784.404419,526.332581 787.622559,526.332581 791.139465,526.332581 
	C791.139465,528.116089 791.139465,529.850830 791.139465,531.830750 
	C799.736511,524.300903 807.519470,522.763245 815.230103,526.872314 
	C819.848511,529.333496 822.752319,533.333862 822.901306,538.369629 
	C823.259888,550.487061 823.017456,562.622375 823.017456,575.101624 
	C820.244934,575.101624 817.325073,575.101624 813.760437,575.101624 
	C813.760437,567.361267 813.767090,559.440491 813.756531,551.519775 
	C813.753235,549.023560 813.902710,546.506104 813.638489,544.035095 
	C812.830261,536.478333 809.227966,533.092773 802.538269,533.349487 
	C796.346619,533.587097 791.359131,538.487610 791.226624,545.062622 
	C791.031921,554.716125 791.201050,564.376953 791.112305,574.422607 
z"/>
<path fill="#FAFAFA" opacity="1.000000" stroke="none" 
	d="
M869.001587,517.088867 
	C869.001587,520.205811 869.001587,522.842590 869.001587,525.959473 
	C872.653748,525.959473 876.053894,525.959473 879.643066,525.959473 
	C879.643066,528.707336 879.643066,530.976624 879.643066,533.726074 
	C876.281067,533.726074 872.890015,533.726074 869.062683,533.726074 
	C869.062683,543.627136 868.746216,553.072205 869.175598,562.483276 
	C869.455261,568.612366 874.659729,568.033630 879.339417,568.077698 
	C879.339417,570.563965 879.339417,572.942505 879.339417,575.901489 
	C875.801880,575.901489 872.159668,576.271606 868.622681,575.818848 
	C862.614624,575.049622 859.130066,570.137695 859.036865,562.639954 
	C858.919495,553.191528 859.008545,543.740479 859.008545,533.932556 
	C856.566895,533.932556 854.492493,533.932556 852.190186,533.932556 
	C852.190186,531.297791 852.190186,529.018250 852.190186,526.349243 
	C854.109070,526.349243 856.189148,526.349243 858.818054,526.349243 
	C858.818054,521.781921 858.818054,517.578064 858.818054,511.509430 
	C862.193237,515.588989 868.221802,508.253601 869.001587,517.088867 
z"/>
<path fill="#FAFAFA" opacity="1.000000" stroke="none" 
	d="
M834.069946,557.998535 
	C834.069092,547.200012 834.069092,536.901062 834.069092,526.306152 
	C837.384155,526.306152 840.442932,526.306152 843.769470,526.306152 
	C843.769470,542.591919 843.769470,558.816895 843.769470,575.279419 
	C840.680969,575.279419 837.741455,575.279419 834.070862,575.279419 
	C834.070862,569.638245 834.070862,564.068115 834.069946,557.998535 
z"/>
<path fill="#F1F1F1" opacity="1.000000" stroke="none" 
	d="
M840.455688,517.493774 
	C836.629517,518.007812 833.503418,517.048218 832.627869,513.536133 
	C832.169312,511.696930 832.897583,508.390839 834.229065,507.549164 
	C836.257019,506.267120 839.483887,505.792206 841.796448,506.434113 
	C843.324585,506.858276 845.265076,510.026031 844.999573,511.631042 
	C844.654175,513.718872 842.303894,515.475037 840.455688,517.493774 
z"/>
<path fill="#0B0B0B" opacity="1.000000" stroke="none" 
	d="
M261.991852,631.077393 
	C194.158600,632.508789 134.553238,581.442200 123.245239,514.539307 
	C110.297806,437.936798 161.648422,369.211029 232.583282,355.314941 
	C310.242767,340.101471 382.701385,389.073730 397.973267,463.718079 
	C413.063293,537.473450 366.020996,610.739258 292.565125,627.563416 
	C282.784332,629.803650 272.525574,629.957031 261.991852,631.077393 
M295.656189,437.969849 
	C297.927216,436.946350 300.118225,435.658661 302.482391,434.942841 
	C316.242432,430.776520 332.079254,431.903015 340.437134,443.085693 
	C344.204041,448.125732 346.552917,454.225647 349.975891,460.653503 
	C350.323364,460.653503 352.028168,460.653503 353.432983,460.653503 
	C353.432983,450.836670 353.432983,441.229279 353.432983,431.473938 
	C320.219513,420.715881 289.855804,420.905579 265.252716,449.755096 
	C256.557343,437.473022 244.485550,429.539642 229.773987,428.157593 
	C209.003113,426.206360 188.048126,426.214905 167.117310,425.383484 
	C167.117310,428.302765 167.117310,430.066956 167.117310,431.813751 
	C177.554001,432.475037 179.997925,435.064819 180.002258,445.387939 
	C180.013992,473.373260 180.025650,501.358582 179.986313,529.343872 
	C179.969894,541.018921 178.376526,542.846008 167.127350,544.515747 
	C167.127350,546.232788 167.127350,547.970032 167.127350,550.194092 
	C184.795700,550.194092 202.249542,550.231506 219.703140,550.183777 
	C237.951431,550.133911 253.251877,543.636658 264.791901,529.142151 
	C287.862762,558.579773 329.722900,555.277893 352.923340,544.457947 
	C353.365601,535.394531 353.810272,526.282349 354.258911,517.088257 
	C352.199860,517.088257 350.626404,517.088257 349.123474,517.088257 
	C344.811768,531.357544 338.756256,538.666870 328.476196,542.154541 
	C305.848450,549.831299 280.552887,535.334167 277.216492,511.722656 
	C275.484985,499.468964 275.645325,486.836426 276.089233,474.415710 
	C276.617096,459.645020 282.249237,446.971680 295.656189,437.969849 
z"/>
<path fill="#0C0C0C" opacity="1.000000" stroke="none" 
	d="
M687.450867,466.010864 
	C665.414978,468.590302 656.749695,449.328888 659.344482,430.805786 
	C660.357544,423.574646 663.149048,417.139923 669.189331,412.410400 
	C679.907776,404.017731 696.340393,407.214172 702.626953,419.251526 
	C708.161987,429.849915 708.479858,440.869690 704.126038,451.944885 
	C701.199768,459.388519 695.684387,464.068054 687.450867,466.010864 
z"/>
<path fill="#0C0C0C" opacity="1.000000" stroke="none" 
	d="
M497.861877,418.237061 
	C504.520294,429.747925 504.821503,441.371796 499.614929,452.948334 
	C496.071228,460.827515 489.556152,465.022675 480.694031,465.057831 
	C475.703552,465.077606 470.712952,465.061371 465.382660,465.061371 
	C465.382660,446.508026 465.382660,427.990173 465.382660,409.078461 
	C476.923218,409.317963 489.230896,406.229736 497.861877,418.237061 
z"/>
<path fill="#0D0D0D" opacity="1.000000" stroke="none" 
	d="
M771.659363,455.135193 
	C768.515198,463.924805 764.476868,467.063965 757.352173,467.108704 
	C751.987610,467.142365 748.599426,464.204224 746.230469,460.002167 
	C742.510620,453.404022 742.507202,446.281006 744.759460,439.267548 
	C747.199036,431.670746 752.882568,428.141876 760.322754,429.003143 
	C766.030579,429.663879 771.308655,435.405823 771.912842,442.283234 
	C772.274048,446.394897 771.842468,450.576202 771.659363,455.135193 
z"/>
<path fill="#0D0D0D" opacity="1.000000" stroke="none" 
	d="
M552.997986,443.176880 
	C547.858521,443.181152 543.217102,443.181152 538.563110,443.181152 
	C539.121521,433.671478 544.316528,428.008118 552.265137,428.001709 
	C560.127075,427.995361 565.314514,433.624939 565.852112,443.172638 
	C561.721924,443.172638 557.608948,443.172638 552.997986,443.176880 
z"/>
<path fill="#0D0D0D" opacity="1.000000" stroke="none" 
	d="
M549.970947,539.307129 
	C550.726013,545.522156 552.037231,551.447144 551.643921,557.256775 
	C551.205688,563.729980 545.647217,567.887512 539.369507,568.007080 
	C532.649780,568.135132 528.036621,564.891846 526.894653,557.749817 
	C526.078979,552.648376 526.312744,547.216736 527.055664,542.073547 
	C527.821167,536.774109 531.832092,533.735535 537.067505,533.109009 
	C542.322876,532.480225 546.966248,533.923584 549.970947,539.307129 
z"/>
<path fill="#FAFAFA" opacity="1.000000" stroke="none" 
	d="
M295.334412,438.151123 
	C282.249237,446.971680 276.617096,459.645020 276.089233,474.415710 
	C275.645325,486.836426 275.484985,499.468964 277.216492,511.722656 
	C280.552887,535.334167 305.848450,549.831299 328.476196,542.154541 
	C338.756256,538.666870 344.811768,531.357544 349.123474,517.088257 
	C350.626404,517.088257 352.199860,517.088257 354.258911,517.088257 
	C353.810272,526.282349 353.365601,535.394531 352.923340,544.457947 
	C329.722900,555.277893 287.862762,558.579773 264.791901,529.142151 
	C253.251877,543.636658 237.951431,550.133911 219.703140,550.183777 
	C202.249542,550.231506 184.795700,550.194092 167.127350,550.194092 
	C167.127350,547.970032 167.127350,546.232788 167.127350,544.515747 
	C178.376526,542.846008 179.969894,541.018921 179.986313,529.343872 
	C180.025650,501.358582 180.013992,473.373260 180.002258,445.387939 
	C179.997925,435.064819 177.554001,432.475037 167.117310,431.813751 
	C167.117310,430.066956 167.117310,428.302765 167.117310,425.383484 
	C188.048126,426.214905 209.003113,426.206360 229.773987,428.157593 
	C244.485550,429.539642 256.557343,437.473022 265.252716,449.755096 
	C289.855804,420.905579 320.219513,420.715881 353.432983,431.473938 
	C353.432983,441.229279 353.432983,450.836670 353.432983,460.653503 
	C352.028168,460.653503 350.323364,460.653503 349.975891,460.653503 
	C346.552917,454.225647 344.204041,448.125732 340.437134,443.085693 
	C332.079254,431.903015 316.242432,430.776520 302.482391,434.942841 
	C300.118225,435.658661 297.927216,436.946350 295.334412,438.151123 
M197.990677,441.585175 
	C197.991180,467.243286 197.934967,492.901642 198.038757,518.559326 
	C198.060211,523.863037 198.516220,529.181091 199.064957,534.462036 
	C199.601242,539.623230 202.612045,542.612671 207.796738,542.954895 
	C212.434433,543.260986 217.162476,543.474487 221.757446,542.935059 
	C243.425400,540.390869 254.420151,521.315125 253.896011,503.839600 
	C253.657700,495.893768 253.158707,487.861633 253.982010,479.994659 
	C257.260529,448.666870 227.231659,424.073334 198.240250,434.661133 
	C198.183289,434.813354 198.079819,434.964508 198.076447,435.117920 
	C198.036179,436.949127 198.010773,438.780701 197.990677,441.585175 
z"/>
<path fill="#0B0B0B" opacity="1.000000" stroke="none" 
	d="
M197.986084,441.098663 
	C198.010773,438.780701 198.036179,436.949127 198.076447,435.117920 
	C198.079819,434.964508 198.183289,434.813354 198.240234,434.661133 
	C227.231659,424.073334 257.260529,448.666870 253.982010,479.994659 
	C253.158707,487.861633 253.657700,495.893768 253.896011,503.839600 
	C254.420151,521.315125 243.425400,540.390869 221.757446,542.935059 
	C217.162476,543.474487 212.434433,543.260986 207.796738,542.954895 
	C202.612045,542.612671 199.601242,539.623230 199.064957,534.462036 
	C198.516220,529.181091 198.060211,523.863037 198.038757,518.559326 
	C197.934967,492.901642 197.991180,467.243286 197.986084,441.098663 
z"/>
</svg>