<svg version="1.1" id="Layer_1" xmlns="http://www.w3.org/2000/svg" xmlns:xlink="http://www.w3.org/1999/xlink" x="0px" y="0px"
	 width="100%" viewBox="0 0 1024 1024" enable-background="new 0 0 1024 1024" xml:space="preserve">

<path fill="none" opacity="1.000000" stroke="#1447E6" 
	d="
M335.627472,364.467041 
	C375.665833,388.481659 399.670868,423.176666 407.033752,468.914368 
	C419.764832,547.998901 365.260559,623.677246 286.786316,637.160706 
	C205.302338,651.161377 133.014252,597.450073 116.347244,522.221741 
	C98.836845,443.186737 151.404938,362.366852 230.881622,347.244812 
	C267.610596,340.256348 302.605408,345.729797 335.627472,364.467041 
M262.488159,631.076843 
	C272.525574,629.957031 282.784332,629.803650 292.565125,627.563416 
	C366.020996,610.739258 413.063293,537.473450 397.973267,463.718079 
	C382.701385,389.073730 310.242767,340.101471 232.583282,355.314941 
	C161.648422,369.211029 110.297806,437.936798 123.245239,514.539307 
	C134.553238,581.442200 194.158600,632.508789 262.488159,631.076843 
z"/>


<path fill="#EDF5FE" opacity="1.000000" stroke="#1447E6" 
	d="
M261.991852,631.077393 
	C194.158600,632.508789 134.553238,581.442200 123.245239,514.539307 
	C110.297806,437.936798 161.648422,369.211029 232.583282,355.314941 
	C310.242767,340.101471 382.701385,389.073730 397.973267,463.718079 
	C413.063293,537.473450 366.020996,610.739258 292.565125,627.563416 
	C282.784332,629.803650 272.525574,629.957031 261.991852,631.077393 
M295.656189,437.969849 
	C297.927216,436.946350 300.118225,435.658661 302.482391,434.942841 
	C316.242432,430.776520 332.079254,431.903015 340.437134,443.085693 
	C344.204041,448.125732 346.552917,454.225647 349.975891,460.653503 
	C350.323364,460.653503 352.028168,460.653503 353.432983,460.653503 
	C353.432983,450.836670 353.432983,441.229279 353.432983,431.473938 
	C320.219513,420.715881 289.855804,420.905579 265.252716,449.755096 
	C256.557343,437.473022 244.485550,429.539642 229.773987,428.157593 
	C209.003113,426.206360 188.048126,426.214905 167.117310,425.383484 
	C167.117310,428.302765 167.117310,430.066956 167.117310,431.813751 
	C177.554001,432.475037 179.997925,435.064819 180.002258,445.387939 
	C180.013992,473.373260 180.025650,501.358582 179.986313,529.343872 
	C179.969894,541.018921 178.376526,542.846008 167.127350,544.515747 
	C167.127350,546.232788 167.127350,547.970032 167.127350,550.194092 
	C184.795700,550.194092 202.249542,550.231506 219.703140,550.183777 
	C237.951431,550.133911 253.251877,543.636658 264.791901,529.142151 
	C287.862762,558.579773 329.722900,555.277893 352.923340,544.457947 
	C353.365601,535.394531 353.810272,526.282349 354.258911,517.088257 
	C352.199860,517.088257 350.626404,517.088257 349.123474,517.088257 
	C344.811768,531.357544 338.756256,538.666870 328.476196,542.154541 
	C305.848450,549.831299 280.552887,535.334167 277.216492,511.722656 
	C275.484985,499.468964 275.645325,486.836426 276.089233,474.415710 
	C276.617096,459.645020 282.249237,446.971680 295.656189,437.969849 
z"/>

<path fill="#193CB8" opacity="1.000000" stroke="#193CB8" 
	d="
M295.334412,438.151123 
	C282.249237,446.971680 276.617096,459.645020 276.089233,474.415710 
	C275.645325,486.836426 275.484985,499.468964 277.216492,511.722656 
	C280.552887,535.334167 305.848450,549.831299 328.476196,542.154541 
	C338.756256,538.666870 344.811768,531.357544 349.123474,517.088257 
	C350.626404,517.088257 352.199860,517.088257 354.258911,517.088257 
	C353.810272,526.282349 353.365601,535.394531 352.923340,544.457947 
	C329.722900,555.277893 287.862762,558.579773 264.791901,529.142151 
	C253.251877,543.636658 237.951431,550.133911 219.703140,550.183777 
	C202.249542,550.231506 184.795700,550.194092 167.127350,550.194092 
	C167.127350,547.970032 167.127350,546.232788 167.127350,544.515747 
	C178.376526,542.846008 179.969894,541.018921 179.986313,529.343872 
	C180.025650,501.358582 180.013992,473.373260 180.002258,445.387939 
	C179.997925,435.064819 177.554001,432.475037 167.117310,431.813751 
	C167.117310,430.066956 167.117310,428.302765 167.117310,425.383484 
	C188.048126,426.214905 209.003113,426.206360 229.773987,428.157593 
	C244.485550,429.539642 256.557343,437.473022 265.252716,449.755096 
	C289.855804,420.905579 320.219513,420.715881 353.432983,431.473938 
	C353.432983,441.229279 353.432983,450.836670 353.432983,460.653503 
	C352.028168,460.653503 350.323364,460.653503 349.975891,460.653503 
	C346.552917,454.225647 344.204041,448.125732 340.437134,443.085693 
	C332.079254,431.903015 316.242432,430.776520 302.482391,434.942841 
	C300.118225,435.658661 297.927216,436.946350 295.334412,438.151123 
M197.990677,441.585175 
	C197.991180,467.243286 197.934967,492.901642 198.038757,518.559326 
	C198.060211,523.863037 198.516220,529.181091 199.064957,534.462036 
	C199.601242,539.623230 202.612045,542.612671 207.796738,542.954895 
	C212.434433,543.260986 217.162476,543.474487 221.757446,542.935059 
	C243.425400,540.390869 254.420151,521.315125 253.896011,503.839600 
	C253.657700,495.893768 253.158707,487.861633 253.982010,479.994659 
	C257.260529,448.666870 227.231659,424.073334 198.240250,434.661133 
	C198.183289,434.813354 198.079819,434.964508 198.076447,435.117920 
	C198.036179,436.949127 198.010773,438.780701 197.990677,441.585175 
z"/>
<path fill="#ECF4FE" opacity="1.000000" stroke="none" 
	d="
M197.986084,441.098663 
	C198.010773,438.780701 198.036179,436.949127 198.076447,435.117920 
	C198.079819,434.964508 198.183289,434.813354 198.240234,434.661133 
	C227.231659,424.073334 257.260529,448.666870 253.982010,479.994659 
	C253.158707,487.861633 253.657700,495.893768 253.896011,503.839600 
	C254.420151,521.315125 243.425400,540.390869 221.757446,542.935059 
	C217.162476,543.474487 212.434433,543.260986 207.796738,542.954895 
	C202.612045,542.612671 199.601242,539.623230 199.064957,534.462036 
	C198.516220,529.181091 198.060211,523.863037 198.038757,518.559326 
	C197.934967,492.901642 197.991180,467.243286 197.986084,441.098663 
z"/>
</svg>